<?xml version="1.0"?>
<svg xmlns="http://www.w3.org/2000/svg" width="50" height="50" viewBox="0 0 50 50">
    <path d="M48.889,12.031c-0.189-0.227-0.471-0.358-0.767-0.358c-10.079,0-12.484-2.877-14.81-5.66C31.254,3.548,29.124,1,22.35,1 c-8.25,0-9.816,4.703-10.96,8.136c-1.038,3.108-8.492,24.975-8.566,25.196c-0.021,0.063-0.016,0.127-0.025,0.19 c-0.521,1.138-0.792,2.419-0.792,3.846c0,4.647,3.428,9.649,10.955,9.649C19.206,48.018,22,44.493,22,41c0-4.382-4.576-7-9-7 c-3.589,0-6,1.8-6,4.479C7,43,12.812,43,15,43c0.552,0,1-0.447,1-1s-0.448-1-1-1c-5.318,0-6-1.348-6-2.521C9,36.767,11.009,36,13,36 c3.441,0,7,1.87,7,5c0,2.497-2.176,5.018-7.038,5.018c-6.186,0-8.955-3.842-8.955-7.649c0-7.278,8.625-7.368,8.992-7.368h0h0 c8.595,0,9.972,3.34,11.565,7.207C26.457,42.797,28.601,48,42,48c0.484,0,0.899-0.348,0.984-0.824l6.122-34.327 C49.158,12.557,49.079,12.258,48.889,12.031z"/>
</svg>
