<?xml version="1.0" encoding="iso-8859-1"?>
<!-- Uploaded to: SVG Repo, www.svgrepo.com, Generator: SVG Repo Mixer Tools -->
<!DOCTYPE svg PUBLIC "-//W3C//DTD SVG 1.1//EN" "http://www.w3.org/Graphics/SVG/1.1/DTD/svg11.dtd">
<svg fill="#000000" height="800px" width="800px" version="1.1" id="Capa_1" xmlns="http://www.w3.org/2000/svg" xmlns:xlink="http://www.w3.org/1999/xlink" 
	 viewBox="0 0 297 297" xml:space="preserve">
<path d="M191.004,2.958c-2.072-2.072-4.949-3.136-7.86-2.933c-2.921,0.207-5.608,1.672-7.365,4.015c0,0-44.63,62.53-61.39,81.854
	c-10.105,11.652-43.623,43.623-43.623,43.623c-13.694,13.695-13.694,35.978,0,49.673l0.012,0.011
	c-1.922,6.951-6.391,18.518-16.3,28.427c-4.083,4.084-9.025,7.606-14.256,11.335c-16.459,11.733-36.943,26.334-40.189,67.133
	c-0.235,2.949,0.836,5.852,2.927,7.944c1.902,1.902,4.475,2.959,7.142,2.959c0.266,0,0.535-0.011,0.802-0.032
	c40.798-3.246,55.4-23.73,67.133-40.189c3.729-5.232,7.251-10.173,11.335-14.256c9.91-9.91,21.476-14.379,28.427-16.3l0.011,0.012
	c13.697,13.695,35.979,13.694,49.674,0c0,0,31.971-33.518,43.622-43.623c19.324-16.76,81.854-61.391,81.854-61.391
	c2.343-1.757,3.808-4.444,4.015-7.365c0.208-2.921-0.862-5.789-2.933-7.86L191.004,2.958z M122.038,106.818l68.143,68.143
	l-16.624,16.624l-68.143-68.143L122.038,106.818z M153.197,211.947c-5.819,5.819-15.284,5.817-21.101,0l-3.956-3.956
	c-2.333-2.332-5.659-3.379-8.906-2.804c-7.711,1.366-27.447,6.347-44.149,23.048c-5.273,5.273-9.456,11.141-13.501,16.815
	c-9.525,13.363-17.945,25.174-39.579,29.944c4.769-21.636,16.582-30.055,29.944-39.579c5.675-4.045,11.542-8.228,16.815-13.501
	c16.7-16.699,21.682-36.438,23.048-44.149c0.575-3.249-0.472-6.573-2.804-8.906l-3.956-3.956c-5.818-5.817-5.818-15.282,0-21.1
	l6.074-6.074l68.143,68.143L153.197,211.947z M205.416,161.622l-70.038-70.038l49.576-66.103l15.532,15.532l-34.072,34.072
	c-3.945,3.945-3.945,10.342,0,14.287c1.973,1.972,4.558,2.959,7.143,2.959c2.586,0,5.17-0.987,7.143-2.959l34.072-34.072
	l6.321,6.321l-23.769,23.769c-3.945,3.945-3.945,10.342,0,14.287c1.973,1.972,4.558,2.959,7.143,2.959
	c2.586,0,5.17-0.987,7.143-2.959l23.769-23.769l36.139,36.139L205.416,161.622z"/>
</svg>