<svg width="2000" height="1400" xmlns="http://www.w3.org/2000/svg"><path fill="#faf9ff" d="M0 0h2000v1400H0z"/><path d="M0 155h0c107.154-3.262 214.308-6.524 325-4 110.692 2.524 224.924 10.835 342 6 117.076-4.835 236.998-22.815 348-23 111.002-.185 213.083 17.425 318 24 104.917 6.575 212.67 2.116 338-4 125.33-6.116 268.237-13.89 326-14 57.763-.11 30.381 7.445 43 15" fill="none" stroke="#eceaff" stroke-width="4" stroke-linecap="round"/><path d="M0 311h0c125.21 1.575 250.422 3.15 354 2s185.524-5.028 291-10 234.481-11.04 351-5c116.519 6.04 220.551 24.186 327 27 106.449 2.814 215.313-9.704 344-16 128.687-6.296 277.196-6.37 336-5 58.804 1.37 27.902 4.185 37 7" fill="none" stroke="#f5f4ff" stroke-width="4" stroke-linecap="round"/><path d="M0 466h0c101.312-10.279 202.624-20.558 316-23s238.817 2.953 351 7c112.183 4.047 211.107 6.748 319 15 107.893 8.252 224.755 22.057 338 21 113.245-1.057 222.874-16.977 352-19 129.126-2.023 277.75 9.85 335 12 57.25 2.15 23.125-5.425 29-13" fill="none" stroke="#dcd8ff" stroke-width="4" stroke-linecap="round"/><path d="M0 622h0c108.308-1.36 216.616-2.72 323-10 106.384-7.28 210.844-20.477 319-12s220.009 38.63 339 45c118.991 6.37 245.121-11.045 349-21 103.879-9.955 185.506-12.45 316-15 130.494-2.55 309.855-5.157 377-3 67.145 2.157 22.072 9.079 17 16" fill="none" stroke="#e2dfff" stroke-width="4" stroke-linecap="round"/><path d="M0 777h0c101.46.653 202.92 1.307 319 2 116.08.693 246.779 1.426 366 4s226.965 6.988 339 11 228.36 7.622 327 0c98.64-7.622 179.595-26.475 303-28 123.405-1.525 289.258 14.279 354 19 64.742 4.721 28.37-1.64 32-8" fill="none" stroke="#d6d2ff" stroke-width="4" stroke-linecap="round"/><path d="M0 933h0c102.166 2.16 204.333 4.319 318 10s238.835 14.884 357 9c118.165-5.884 229.329-26.856 341-33 111.671-6.144 223.85 2.539 327 7s197.271 4.701 317 10c119.729 5.299 265.065 15.657 326 16 60.935.343 37.467-9.328 54-19" fill="none" stroke="#d5d1ff" stroke-width="4" stroke-linecap="round"/><path d="M0 1088h0c109.756 2.241 219.511 4.482 330 5 110.489.518 221.71-.688 332-4 110.29-3.312 219.647-8.73 339-10 119.353-1.27 248.703 1.608 350 9 101.297 7.392 174.542 19.298 293 14 118.458-5.298 282.131-27.8 349-33 66.869-5.2 36.935 6.9 47 19" fill="none" stroke="#e7e4ff" stroke-width="4" stroke-linecap="round"/><path d="M0 1244h0c106.556 13.893 213.112 27.786 328 19 114.888-8.786 238.108-40.25 357-39s233.457 35.213 339 35c105.543-.213 202.063-34.604 310-34 107.937.604 227.29 36.201 348 40 120.71 3.799 242.774-24.2 296-33s37.613 1.6 62 12" fill="none" stroke="#eceaff" stroke-width="4" stroke-linecap="round"/></svg>