<?xml version="1.0"?>
<svg xmlns="http://www.w3.org/2000/svg" viewBox="-7 9 32 32">
    <path style="text-indent:0;text-align:start;line-height:normal;text-transform:none;block-progression:tb;-inkscape-font-specification:Sans" d="M 19 2.03125 L 18.28125 2.71875 L 12.71875 8.3125 L 12 9 L 11 10 L 8.71875 12.3125 L 8.15625 12.875 L 8.59375 13.5625 C 8.59375 13.5625 9.2039499 14.499607 9.6875 15.53125 C 9.929275 16.047071 10.147797 16.594689 10.21875 16.96875 C 10.254226 17.15578 10.256663 17.267727 10.25 17.3125 C 10.142235 17.397988 8.8253357 18.443128 7.25 19.71875 C 5.6106862 21.046178 3.8668895 22.446217 3.15625 23.15625 C 1.6023399 24.71016 1.6023399 27.25859 3.15625 28.8125 C 4.7037566 30.360007 7.2256064 30.347252 8.78125 28.8125 L 8.8125 28.8125 C 9.5270587 28.095739 10.959564 26.381944 12.28125 24.75 C 13.571598 23.156751 14.655224 21.799023 14.71875 21.71875 C 14.7134 21.72415 14.763644 21.65724 15.125 21.71875 C 15.486356 21.78026 16.003607 21.970525 16.5 22.21875 C 17.492786 22.7152 18.40625 23.375 18.40625 23.375 L 19.09375 23.875 L 19.6875 23.28125 L 22 21 L 23 20 L 23.6875 19.28125 L 29.28125 13.71875 L 29.96875 13 L 29.28125 12.28125 L 19.71875 2.71875 L 19 2.03125 z M 20.3125 7.25 C 20.502875 7.2650156 20.6535 7.34 20.78125 7.46875 C 21.29125 7.98375 20.5455 9.98675 20.1875 10.84375 C 19.8295 11.70175 19.94225 12.37475 20.40625 12.84375 C 21.19925 13.64475 23.2985 11.76025 24.1875 12.65625 C 25.0755 13.55225 23.45925 15.45425 24.03125 16.03125 C 24.041659 16.041743 24.051809 16.052669 24.0625 16.0625 L 22.28125 17.84375 L 14.15625 9.71875 L 15.53125 8.34375 C 15.550697 8.3670626 15.57157 8.3838668 15.59375 8.40625 C 16.27275 9.09125 17.668 8.4375 18.25 8.0625 C 18.93925 7.62 19.741375 7.2049531 20.3125 7.25 z M 12.71875 11.15625 L 20.84375 19.28125 L 20.5625 19.5625 L 18.84375 21.3125 C 18.457909 21.045921 18.189226 20.829033 17.40625 20.4375 C 16.809018 20.13885 16.1588 19.867459 15.46875 19.75 C 14.7787 19.632541 13.903101 19.659399 13.28125 20.28125 L 13.25 20.34375 L 13.21875 20.375 C 13.21875 20.375 12.037665 21.871478 10.71875 23.5 C 9.399835 25.128522 7.866695 26.946198 7.40625 27.40625 C 6.6161601 28.19634 5.3838399 28.19634 4.59375 27.40625 C 3.8036601 26.61616 3.8036601 25.38384 4.59375 24.59375 C 5.0551105 24.132783 6.8713138 22.600072 8.5 21.28125 C 10.128686 19.962428 11.625 18.78125 11.625 18.78125 L 11.65625 18.75 L 11.71875 18.71875 C 12.350097 18.088005 12.312672 17.253657 12.1875 16.59375 C 12.062328 15.933843 11.781725 15.288554 11.5 14.6875 C 11.119219 13.875114 10.899672 13.577719 10.65625 13.1875 L 12.4375 11.4375 L 12.71875 11.15625 z M 6.25 24.65625 C 5.6463527 24.65625 5.15625 25.146352 5.15625 25.75 C 5.15625 26.353647 5.6463527 26.84375 6.25 26.84375 C 6.8536473 26.84375 7.34375 26.353647 7.34375 25.75 C 7.34375 25.146352 6.8536473 24.65625 6.25 24.65625 z" transform="translate(-7 9)" overflow="visible" font-family="Sans"/>
</svg>
